<?xml version="1.0" encoding="UTF-8" standalone="no"?>
<!DOCTYPE svg PUBLIC "-//W3C//DTD SVG 1.1//EN" "http://www.w3.org/Graphics/SVG/1.1/DTD/svg11.dtd">
<svg xmlns="http://www.w3.org/2000/svg" xmlns:xl="http://www.w3.org/1999/xlink" version="1.1" viewBox="261 63 126 126" width="126pt" height="126pt" xmlns:dc="http://purl.org/dc/elements/1.1/"><metadata> Produced by OmniGraffle 6.5.2 <dc:date>2017-07-29 16:25:28 +0000</dc:date></metadata><defs/><g stroke="none" stroke-opacity="1" stroke-dasharray="none" fill="none" fill-opacity="1"><title>Canvas 1</title><g><title>Layer 1</title><path d="M 274.5 67.5 L 373.5 67.5 C 378.47056 67.5 382.5 71.529437 382.5 76.5 L 382.5 175.5 C 382.5 180.47056 378.47056 184.5 373.5 184.5 L 274.5 184.5 C 269.52944 184.5 265.5 180.47056 265.5 175.5 L 265.5 76.5 C 265.5 71.529437 269.52944 67.5 274.5 67.5 Z" fill="#39c740"/><path d="M 274.5 67.5 L 373.5 67.5 C 378.47056 67.5 382.5 71.529437 382.5 76.5 L 382.5 175.5 C 382.5 180.47056 378.47056 184.5 373.5 184.5 L 274.5 184.5 C 269.52944 184.5 265.5 180.47056 265.5 175.5 L 265.5 76.5 C 265.5 71.529437 269.52944 67.5 274.5 67.5 Z" stroke="#0080ff" stroke-linecap="round" stroke-linejoin="round" stroke-width="5"/><path d="M 297 90 L 351 126 L 297 162 L 297 162" stroke="yellow" stroke-linecap="round" stroke-linejoin="round" stroke-width="10"/></g></g></svg>
